<svg xmlns="http://www.w3.org/2000/svg" xmlns:xlink="http://www.w3.org/1999/xlink" width="72" height="72" viewBox="0 0 72 72">
  <defs>
    <clipPath id="clip-path">
      <rect id="Rectángulo_403959" data-name="Rectángulo 403959" width="51.067" height="51.066" fill="none"/>
    </clipPath>
  </defs>
  <g id="Grupo_1203426" data-name="Grupo 1203426" transform="translate(-640 -558)">
    <rect id="Rectángulo_403956" data-name="Rectángulo 403956" width="72" height="72" rx="5" transform="translate(640 558)" fill="#99dcff"/>
    <g id="Grupo_1202858" data-name="Grupo 1202858" transform="translate(650.204 570.233)">
      <g id="Grupo_1202857" data-name="Grupo 1202857" clip-path="url(#clip-path)">
        <path id="Trazado_879394" data-name="Trazado 879394" d="M49.548,17.36V8.882a7.09,7.09,0,0,0-2.08-5.017l0,0a7.089,7.089,0,0,0-2.1,5.041V17.36Z" transform="translate(-33.64 -2.864)" fill="#fff"/>
        <path id="Trazado_879395" data-name="Trazado 879395" d="M55.948,56.6l7.342,4.239a7.091,7.091,0,0,1,3.305,4.31l0,.005a7.09,7.09,0,0,1-5.418-.7l-7.325-4.229Z" transform="translate(-39.941 -41.975)" fill="#fff"/>
        <path id="Trazado_879396" data-name="Trazado 879396" d="M14.51,56.6,7.168,60.836a7.091,7.091,0,0,0-3.305,4.31l0,.005a7.09,7.09,0,0,0,5.418-.7L16.6,60.225Z" transform="translate(-2.864 -41.975)" fill="#fff"/>
        <path id="Trazado_879397" data-name="Trazado 879397" d="M46.477,51.692a2.435,2.435,0,1,1-2.435,2.435,2.435,2.435,0,0,1,2.435-2.435" transform="translate(-32.664 -38.337)" fill="#e1e3e9"/>
        <rect id="Rectángulo_403957" data-name="Rectángulo 403957" width="3.989" height="31.853" transform="translate(11.818 18.25)" fill="#cef"/>
        <path id="Trazado_879398" data-name="Trazado 879398" d="M135.7,28.868a4.91,4.91,0,1,1-4.91,4.91,4.91,4.91,0,0,1,4.91-4.91" transform="translate(-96.999 -21.41)" fill="#ffd737"/>
        <rect id="Rectángulo_403958" data-name="Rectángulo 403958" width="5.585" height="4.787" transform="translate(29.749 45.281)" fill="#e1e3e9"/>
        <path id="Trazado_879399" data-name="Trazado 879399" d="M89.493,110.413H66.374a1.4,1.4,0,0,0-1.348,1.031l-3.789,13.964a1.4,1.4,0,0,0,1.348,1.762h30.7a1.4,1.4,0,0,0,1.348-1.762l-3.789-13.964a1.4,1.4,0,0,0-1.348-1.031" transform="translate(-45.379 -81.888)" fill="#cef"/>
        <path id="Trazado_879400" data-name="Trazado 879400" d="M171.285,16.633a.994.994,0,0,0,.705-.292l1.747-1.747a1,1,0,1,0-1.411-1.411L170.58,14.93a1,1,0,0,0,.705,1.7" transform="translate(-126.294 -9.56)"/>
        <path id="Trazado_879401" data-name="Trazado 879401" d="M116.85,16.341a1,1,0,0,0,1.411-1.411l-1.747-1.747a1,1,0,1,0-1.411,1.411Z" transform="translate(-85.149 -9.56)"/>
        <path id="Trazado_879402" data-name="Trazado 879402" d="M132.835,36.82a5.907,5.907,0,1,0-5.907-5.907,5.914,5.914,0,0,0,5.907,5.907m0-9.819a3.912,3.912,0,1,1-3.912,3.912A3.917,3.917,0,0,1,132.835,27" transform="translate(-94.136 -18.546)"/>
        <path id="Trazado_879403" data-name="Trazado 879403" d="M171.991,68.661a1,1,0,1,0-1.411,1.411l1.747,1.747a1,1,0,0,0,1.411-1.411Z" transform="translate(-126.294 -50.706)"/>
        <path id="Trazado_879404" data-name="Trazado 879404" d="M116.85,68.661,115.1,70.408a1,1,0,1,0,1.41,1.411l1.747-1.747a1,1,0,0,0-1.411-1.411Z" transform="translate(-85.149 -50.706)"/>
        <path id="Trazado_879405" data-name="Trazado 879405" d="M180.378,45.007a1,1,0,0,0,1,1h2.471a1,1,0,1,0,0-1.995h-2.471a1,1,0,0,0-1,1" transform="translate(-133.777 -32.64)"/>
        <path id="Trazado_879406" data-name="Trazado 879406" d="M146.928,4.466a1,1,0,0,0,1-1V1a1,1,0,1,0-1.995,0V3.468a1,1,0,0,0,1,1" transform="translate(-108.23)"/>
        <path id="Trazado_879407" data-name="Trazado 879407" d="M145.932,79.454v2.471a1,1,0,0,0,1.995,0V79.454a1,1,0,1,0-1.995,0" transform="translate(-108.23 -58.188)"/>
        <path id="Trazado_879408" data-name="Trazado 879408" d="M102.918,46.006h2.471a1,1,0,0,0,0-1.995h-2.471a1,1,0,1,0,0,1.995" transform="translate(-75.59 -32.641)"/>
        <path id="Trazado_879409" data-name="Trazado 879409" d="M50.069,49.072H36.331V46.279H47.9a2.394,2.394,0,0,0,2.31-3.021L46.424,29.295a2.4,2.4,0,0,0-2.31-1.767H20.994a2.4,2.4,0,0,0-2.31,1.767l-1.879,6.924V21.071l3.934,2.271a8.134,8.134,0,0,0,4.057,1.08,8.042,8.042,0,0,0,2.123-.284,1,1,0,0,0,.7-1.225A8.035,8.035,0,0,0,23.848,18L16.9,13.989V6.019A8.038,8.038,0,0,0,14.528.292a1,1,0,0,0-1.407,0,8.139,8.139,0,0,0-2.4,5.75V14L3.805,18A8.037,8.037,0,0,0,.034,22.919a1,1,0,0,0,.7,1.22,8.042,8.042,0,0,0,2.123.284,8.134,8.134,0,0,0,4.057-1.08l3.907-2.255v9.184a1,1,0,0,0,1.995,0V19.936l1.011-.584.983.568V49.072H12.816V39.248a1,1,0,1,0-1.995,0v9.824H1a1,1,0,1,0,0,1.995H50.069a1,1,0,1,0,0-1.995ZM15.25,15.79a1.437,1.437,0,1,1-1.437-1.437A1.439,1.439,0,0,1,15.25,15.79m10.068,6.617a6.137,6.137,0,0,1-3.582-.791l-5.647-3.26a3.433,3.433,0,0,0,1.091-1.9l5.671,3.274a6.044,6.044,0,0,1,2.467,2.681M13.822,2.541A6.049,6.049,0,0,1,14.91,6.019v6.519a3.418,3.418,0,0,0-2.194,0v-6.5a6.137,6.137,0,0,1,1.106-3.5m-7.9,19.074a6.132,6.132,0,0,1-3.582.791A6.048,6.048,0,0,1,4.8,19.725l5.645-3.259a3.432,3.432,0,0,0,1.1,1.9ZM25.092,44.284l.487-3.591h5.968v3.591Zm-7.887,0a.4.4,0,0,1-.385-.5l.838-3.087h5.909l-.487,3.591Zm1.969-9.176h5.151L23.837,38.7H18.2Zm12.374-5.585v3.591h-4.94l.487-3.591Zm6.447,0,.487,3.591h-4.94V29.523ZM46.909,38.7H41.253l-.487-3.591h5.169Zm-7.669,0h-5.7V35.108h5.21Zm-7.692-3.591V38.7h-5.7l.487-3.591Zm1.995,5.585h5.968L40,44.284H33.542ZM48.22,44.128a.392.392,0,0,1-.317.157H42.011l-.487-3.591H47.45l.838,3.087A.391.391,0,0,1,48.22,44.128ZM44.5,29.817l.895,3.3H40.5l-.487-3.591h4.106A.4.4,0,0,1,44.5,29.817Zm-23.5-.294h4.088l-.487,3.591h-4.88l.895-3.3a.4.4,0,0,1,.385-.294M16.805,46.246a2.435,2.435,0,0,0,.4.033H28.751v2.793H16.805Zm13.941.033h3.591v2.793H30.746Z" transform="translate(0 0)"/>
        <path id="Trazado_879410" data-name="Trazado 879410" d="M42.881,132.676a1,1,0,1,0-.705-.292,1,1,0,0,0,.705.292" transform="translate(-31.063 -96.919)"/>
      </g>
    </g>
  </g>
</svg>
